<svg fill="none" height="24" viewBox="0 0 24 24" width="24" xmlns="http://www.w3.org/2000/svg"><g stroke="#1c274c" stroke-width="1.5"><path d="m2 8c0-2.82843 0-4.24264.87868-5.12132s2.29289-.87868 5.12132-.87868h1c2.8284 0 4.2426 0 5.1213.87868s.8787 2.29289.8787 5.12132v8c0 2.8284 0 4.2426-.8787 5.1213s-2.2929.8787-5.1213.8787h-1c-2.82843 0-4.24264 0-5.12132-.8787s-.87868-2.2929-.87868-5.1213z"/><g stroke-linecap="round"><path d="m17.5 10.0068c1.8597.0269 2.914.1649 3.6213.8722.8787.8787.8787 2.2929.8787 5.1213s0 4.2427-.8787 5.1213c-.7073.7074-1.7616.8453-3.6213.8722"/><path d="m11 5h-5"/><path d="m19 18v-4"/></g><path d="m10 17.5c0 .8284-.67157 1.5-1.5 1.5s-1.5-.6716-1.5-1.5.67157-1.5 1.5-1.5 1.5.6716 1.5 1.5z"/><path d="m20.5 6.98598 1.5 1.01402c0-3.01468-2.1623-5.51725-5-6" stroke-linecap="round" stroke-linejoin="round"/></g></svg>